<?xml version="1.0" encoding="UTF-8"?>
<svg id="Layer_2" data-name="Layer 2" xmlns="http://www.w3.org/2000/svg" viewBox="0 0 256 256">
  <defs>
    <style>
      .cls-1 {
        fill: #0a014f;
      }
    </style>
  </defs>
  <g id="Layer_1-2" data-name="Layer 1">
    <path class="cls-1" d="M128,0C57.31,0,0,57.31,0,128s57.31,128,128,128,128-57.31,128-128S198.69,0,128,0ZM170,179c-.41,4.98-1.83,8.84-3,12-1.16,3.13-2.55,6.06-3,7-.04.08,0,0-3,6-2,4-1.99,3.99-2,4-.64,1.14-.83,1.38-1,2-.56,2.03.53,2.83,0,4-.84,1.84-4.5,1.99-5,2-2.01.06-2.77-.63-4,0-1.02.53-.87,1.19-2,2-.97.7-1.99.81-4,1-1.24.12-2.83.26-5,0-3.04-.37-3-1.03-5-1-2,.03-2.06.69-5,1-.91.09-2.26.23-4,0-1.26-.17-2.2-.45-4-1-.72-.22-1.48-.48-3-1-2.46-.84-2.49-.9-3-1-1.14-.24-1.49-.08-4,0-1.43.05-.78-.02-5,0-3.36.02-3.3.06-4,0-2.22-.18-3.89-.67-5-1-1.55-.46-2.7-.98-5-2-2.82-1.26-4.23-1.88-6-3-2.1-1.32-3.47-2.52-4-3,0,0-1.15-1.04-2-2-2.84-3.22-2.99-9.37-3-10-.35-23.41,3-35,3-35,3.45-11.92,5-16,5-16,1.6-4.21,2.83-6.78,3-11,.1-2.52.23-7.27-3-11-1.55-1.79-3.08-1.32-4-3-1.36-2.47-.4-6.65,2-8,3.73-2.1,9.45,3.46,10,4,5,4.86,5.69,11.51,6,15,.51,5.7-.65,10.21-3,19-2.48,9.27-3.65,10.52-6,20-2.55,10.31-2.35,13.66-2,16,.38,2.5,1.59,8.16,6,13,2.76,3.03,6.91,5.89,8,5,.85-.69-.71-3.19-3-10-1.39-4.14-2.42-7.18-3-11-.82-5.37-1.53-10.07,1-14,.33-.52,1.89-2.34,5-6,1.84-2.16,2.43-2.8,3-4,1.24-2.6,1.05-4.93,1-7-.01-.54.07,2.18,1-12,.71-10.83.57-11.01,1-14,.32-2.26.29-1.38,2-10,2.27-11.45,2-11.34,3-15,1.34-4.89,1.91-5.38,2-8,.16-4.61-1.42-8.59-2-10-1.31-3.22-2.04-3.28-3-6-1.15-3.27-1-5.73-1-9,0-9.05-1.13-8.74-1-18,.14-9.9,1.45-10.76,2-11,2.94-1.28,8.68,4.67,9,5,2.97,3.12,3.4,5.5,6,6,.25.05,1.83.03,5,0,2.17-.02,2.36-.04,3,0,2.65.18,3.61.83,5,1,2.73.33,5.05-1.48,7-3,3.87-3.02,3.85-5.7,8-8,1.53-.85,2.29-1.27,3-1,2.97,1.14,3.14,12.4,1,21-.54,2.16-2.25,8.27,0,11,.25.3.89.97,1,2,.17,1.52-.95,2.47-2,4-.9,1.33-1.6,3.88-3,9-.6,2.21-.9,3.31-1,4-.43,3.06.12,5.22,1,9,.84,3.64,2.08,8.98,3,14,.39,2.15.3,1.92,1,6,.92,5.39,1.3,7.06,2,11,1.26,7.1,1.89,10.65,2,13,.32,7.06.47,10.6,0,12-.19.55-.91,2.51,0,4,.35.58.82.88,1,1,2.29,1.52,6.43,6.11,8,9,1.66,3.04,1.42,5.93,1,11Z"/>
  </g>
</svg>